# xmcd CD database file
#
# Track frame offsets:
#	150
#	18058
#	35107
#	46187
#	65258
#	79714
#
# Disc length: 1271 seconds
#
# Revision: 0
# Processed by: cddbd v1.5.2PL0 Copyright (c) Steve Scherf et al.
# Submitted via: CDex 1.70beta2
#
DISCID=3e04f506
DTITLE=Alysha - Cdn. - Nuthin' But a Chevy
DYEAR=1900
DGENRE=Country
TTITLE0=Teen Years
TTITLE1=It Hurts
TTITLE2=Nuthin' But A Chevy
TTITLE3=I'll Always Care
TTITLE4=This Time
TTITLE5=Leavin' Today
EXTD=
EXTT0=
EXTT1=
EXTT2=
EXTT3=
EXTT4=
EXTT5=
PLAYORDER=
